<svg width="18" height="13" viewBox="0 0 18 13" fill="none" xmlns="http://www.w3.org/2000/svg">
<path d="M11.0833 12.6667C9.31528 12.6667 7.81771 12.0531 6.59062 10.826C5.36354 9.59896 4.75 8.10139 4.75 6.33333C4.75 4.57847 5.36354 3.0842 6.59062 1.85052C7.81771 0.61684 9.31528 0 11.0833 0C12.8382 0 14.3325 0.61684 15.5661 1.85052C16.7998 3.0842 17.4167 4.57847 17.4167 6.33333C17.4167 8.10139 16.7998 9.59896 15.5661 10.826C14.3325 12.0531 12.8382 12.6667 11.0833 12.6667ZM11.0833 11.0833C12.4028 11.0833 13.5243 10.6215 14.4479 9.69792C15.3715 8.77431 15.8333 7.65278 15.8333 6.33333C15.8333 5.01389 15.3715 3.89236 14.4479 2.96875C13.5243 2.04514 12.4028 1.58333 11.0833 1.58333C9.76389 1.58333 8.64236 2.04514 7.71875 2.96875C6.79514 3.89236 6.33333 5.01389 6.33333 6.33333C6.33333 7.65278 6.79514 8.77431 7.71875 9.69792C8.64236 10.6215 9.76389 11.0833 11.0833 11.0833ZM12.8844 9.28229L14.0125 8.15417L11.875 6.01667V3.16667H10.2917V6.66979L12.8844 9.28229ZM0.791667 3.95833V2.375H3.95833V3.95833H0.791667ZM0 7.125V5.54167H3.95833V7.125H0ZM0.791667 10.2917V8.70833H3.95833V10.2917H0.791667Z" fill="#253C96"/>
</svg>
