<svg width="19" height="19" viewBox="0 0 19 19" fill="none" xmlns="http://www.w3.org/2000/svg">
<path d="M9.49984 9.50001C9.93525 9.50001 10.308 9.34498 10.6181 9.03491C10.9281 8.72484 11.0832 8.35209 11.0832 7.91668C11.0832 7.48126 10.9281 7.10852 10.6181 6.79845C10.308 6.48838 9.93525 6.33334 9.49984 6.33334C9.06442 6.33334 8.69168 6.48838 8.38161 6.79845C8.07154 7.10852 7.9165 7.48126 7.9165 7.91668C7.9165 8.35209 8.07154 8.72484 8.38161 9.03491C8.69168 9.34498 9.06442 9.50001 9.49984 9.50001ZM9.49984 15.3188C11.1096 13.841 12.3037 12.4984 13.0821 11.2912C13.8606 10.0839 14.2498 9.01182 14.2498 8.07501C14.2498 6.63682 13.7913 5.45921 12.8743 4.5422C11.9573 3.62518 10.8325 3.16668 9.49984 3.16668C8.1672 3.16668 7.04237 3.62518 6.12536 4.5422C5.20834 5.45921 4.74984 6.63682 4.74984 8.07501C4.74984 9.01182 5.13907 10.0839 5.91755 11.2912C6.69602 12.4984 7.89011 13.841 9.49984 15.3188ZM9.49984 17.4167C7.37553 15.609 5.7889 13.93 4.73994 12.3797C3.69098 10.8293 3.1665 9.39445 3.1665 8.07501C3.1665 6.09584 3.80314 4.51911 5.0764 3.3448C6.34966 2.1705 7.82414 1.58334 9.49984 1.58334C11.1755 1.58334 12.65 2.1705 13.9233 3.3448C15.1965 4.51911 15.8332 6.09584 15.8332 8.07501C15.8332 9.39445 15.3087 10.8293 14.2597 12.3797C13.2108 13.93 11.6241 15.609 9.49984 17.4167Z" fill="#253C96"/>
</svg>
