<svg width="18" height="13" viewBox="0 0 18 13" fill="none" xmlns="http://www.w3.org/2000/svg">
<path d="M10.2917 7.125C9.63194 7.125 9.07118 6.8941 8.60937 6.43229C8.14757 5.97049 7.91667 5.40972 7.91667 4.75C7.91667 4.09028 8.14757 3.52951 8.60937 3.06771C9.07118 2.6059 9.63194 2.375 10.2917 2.375C10.9514 2.375 11.5122 2.6059 11.974 3.06771C12.4358 3.52951 12.6667 4.09028 12.6667 4.75C12.6667 5.40972 12.4358 5.97049 11.974 6.43229C11.5122 6.8941 10.9514 7.125 10.2917 7.125ZM4.75 9.5C4.31458 9.5 3.94184 9.34497 3.63177 9.0349C3.3217 8.72483 3.16667 8.35208 3.16667 7.91667V1.58333C3.16667 1.14792 3.3217 0.775174 3.63177 0.465104C3.94184 0.155035 4.31458 0 4.75 0H15.8333C16.2687 0 16.6415 0.155035 16.9516 0.465104C17.2616 0.775174 17.4167 1.14792 17.4167 1.58333V7.91667C17.4167 8.35208 17.2616 8.72483 16.9516 9.0349C16.6415 9.34497 16.2687 9.5 15.8333 9.5H4.75ZM6.33333 7.91667H14.25C14.25 7.48125 14.405 7.10851 14.7151 6.79844C15.0252 6.48837 15.3979 6.33333 15.8333 6.33333V3.16667C15.3979 3.16667 15.0252 3.01163 14.7151 2.70156C14.405 2.39149 14.25 2.01875 14.25 1.58333H6.33333C6.33333 2.01875 6.1783 2.39149 5.86823 2.70156C5.55816 3.01163 5.18542 3.16667 4.75 3.16667V6.33333C5.18542 6.33333 5.55816 6.48837 5.86823 6.79844C6.1783 7.10851 6.33333 7.48125 6.33333 7.91667ZM15.0417 12.6667H1.58333C1.14792 12.6667 0.775174 12.5116 0.465104 12.2016C0.155035 11.8915 0 11.5187 0 11.0833V2.375H1.58333V11.0833H15.0417V12.6667Z" fill="#253C96"/>
</svg>
